<?xml version="1.0" standalone="no"?><!DOCTYPE svg PUBLIC "-//W3C//DTD SVG 1.1//EN" "http://www.w3.org/Graphics/SVG/1.1/DTD/svg11.dtd"><svg t="1558950102684" class="icon" style="" viewBox="0 0 1024 1024" version="1.1" xmlns="http://www.w3.org/2000/svg" p-id="2403" xmlns:xlink="http://www.w3.org/1999/xlink" width="64" height="64"><defs><style type="text/css"></style></defs><path d="M16.360759 820.025683a1980.722114 1980.722114 0 0 1 382.260713-45.871286c183.485143 0 376.603255 28.287293 366.970286 61.161715-38.226071 129.968643-244.646857 183.485143-366.970286 152.904285s-275.227714 0-305.808571-45.871285-76.452143-122.323428-76.452142-122.323429z" fill="#D2EAFF" p-id="2404"></path><path d="M536.082425 662.534269v-7.645214c100.916828-77.522473 114.372406-215.747947 114.372406-329.355831 0-154.892041-91.742571-247.399134-243.117814-247.399134h-7.951023c-152.904286 0-242.96491 91.742571-242.96491 247.399134 0 113.607884 13.455577 251.833358 114.219501 329.355831v7.645214C135.626101 683.176348 2.14066 742.044498 2.14066 832.105122c0 127.827983 128.592504 190.060027 393.269822 190.060027 338.682992 0 409.630581-103.516201 409.324773-190.060027 0-90.213528-133.638346-149.081678-268.65283-169.570853z m-140.824847 299.539495c-219.41765 0-330.579065-40.213827-330.579065-119.265342 0-30.580857 97.40003-87.461251 244.646857-102.904584a38.837689 38.837689 0 0 0 34.556368-38.53188V639.139913a39.143497 39.143497 0 0 0-18.042706-32.721517c-88.990294-55.962968-100.916828-177.521875-100.916828-288.224578 0-118.653726 62.232044-193.882634 183.485143-193.882634s174.769598 75.381813 174.769598 193.882634c0 110.702703-11.926534 231.649993-100.763924 288.377483a38.837689 38.837689 0 0 0-17.889802 32.568612v62.384949a38.684784 38.684784 0 0 0 34.097656 38.53188c146.63521 15.290429 244.646857 72.017918 244.646857 102.75168-0.611617 75.687621-127.216366 119.265343-348.010154 119.265342z" fill="#2E85ED" p-id="2405"></path><path d="M984.703599 784.704793A37.308646 37.308646 0 0 1 948.159474 747.396148c0-28.746006-107.033-98.47036-230.120949-111.467225a37.46155 37.46155 0 0 1-33.486039-37.308645V519.874571a38.073167 38.073167 0 0 1 16.360759-30.580857c96.788413-61.161714 107.033-198.775571 107.033-255.197253C808.099149 104.127818 720.790802 76.452143 647.702553 76.452143a37.46155 37.46155 0 0 1-37.308645-37.46155A37.308646 37.308646 0 0 1 647.702553 1.987756c145.106167 0 235.166791 88.684486 235.166791 231.649992 0 65.29013-12.538151 221.099597-124.464088 305.808571V565.745856c119.418247 21.865313 263.606988 93.730327 263.606988 181.191579a37.308646 37.308646 0 0 1-37.308645 37.46155z" fill="#2E85ED" p-id="2406"></path></svg>