<?xml version="1.0" standalone="no"?><!DOCTYPE svg PUBLIC "-//W3C//DTD SVG 1.1//EN" "http://www.w3.org/Graphics/SVG/1.1/DTD/svg11.dtd"><svg t="1558950178982" class="icon" style="" viewBox="0 0 1024 1024" version="1.1" xmlns="http://www.w3.org/2000/svg" p-id="4635" xmlns:xlink="http://www.w3.org/1999/xlink" width="64" height="64"><defs><style type="text/css"></style></defs><path d="M26.205405 781.837838a748.281081 748.281081 0 0 1 761.081081 0l-103.783783 86.486486h-276.756757l-121.081081 103.783784-121.081081-86.486486z" fill="#d81e06" p-id="4636"></path><path d="M841.254054 0H368.691892a183.524324 183.524324 0 0 0-174.702703 134.227027h73.513514a113.124324 113.124324 0 0 1 101.189189-64.172973h472.562162a115.545946 115.545946 0 0 1 113.989189 116.756757v340.064865a117.275676 117.275676 0 0 1-66.94054 106.205405v74.032433a186.637838 186.637838 0 0 0 135.264865-180.237838V186.810811A185.254054 185.254054 0 0 0 841.254054 0z m-226.594595 607.135135H205.059459a34.594595 34.594595 0 0 0 0 69.189189h409.6a34.594595 34.594595 0 0 0 29.578379-17.297297 35.805405 35.805405 0 0 0 0-34.594595 34.594595 34.594595 0 0 0-29.578379-17.297297z m-409.6-144.259459h272.951352a34.594595 34.594595 0 0 0 0-69.18919H205.059459a34.594595 34.594595 0 0 0 0 69.18919z" fill="#d81e06" p-id="4637"></path><path d="M768.951351 716.108108a115.372973 115.372973 0 0 1-113.816216 116.756757h-256l-108.8 111.567567-40.475676-41.513513-67.632432-70.054054A115.372973 115.372973 0 0 1 69.621622 716.281081V376.043243A115.372973 115.372973 0 0 1 182.572973 259.459459h472.735135a115.372973 115.372973 0 0 1 113.816216 116.756757V716.108108z m-113.816216-526.875676H182.572973A185.081081 185.081081 0 0 0 0.432432 375.87027V716.108108A185.945946 185.945946 0 0 0 150.227027 899.459459l107.935135 110.702703a44.972973 44.972973 0 0 0 64.518919 0l104.821622-107.416216h227.805405a184.908108 184.908108 0 0 0 181.967568-186.464865V376.043243a185.081081 185.081081 0 0 0-182.140541-186.810811z" fill="#d81e06" p-id="4638"></path></svg>