<?xml version="1.0" standalone="no"?><!DOCTYPE svg PUBLIC "-//W3C//DTD SVG 1.1//EN" "http://www.w3.org/Graphics/SVG/1.1/DTD/svg11.dtd"><svg t="1558950212618" class="icon" style="" viewBox="0 0 1024 1024" version="1.1" xmlns="http://www.w3.org/2000/svg" p-id="5101" xmlns:xlink="http://www.w3.org/1999/xlink" width="64" height="64"><defs><style type="text/css"></style></defs><path d="M55.169856 679.621766a1011.028724 1011.028724 0 0 1 511.543265-146.155218c292.310437 0 413.436574 88.606601 401.926851 127.885816-45.673506 155.28992 127.885816 328.849242-383.657448 310.579839-150.539875-5.480821-475.00446 36.538805-511.543265-18.269402s-18.269402-274.041035-18.269403-274.041035z" fill="#D2EAFF" p-id="5102"></path><path d="M919.129892 216.492417V182.694023c0-100.847101-76.183408-182.694023-169.722748-182.694023H207.171284C113.266556 0 36.900454 81.846922 36.900454 182.694023v658.611954c0 100.664407 71.616057 182.694023 159.674576 182.694023h630.477074c88.058519 0 159.85727-81.846922 159.857271-182.694023V365.388046a191.280642 191.280642 0 0 0-67.779483-148.895629z m0 624.81356c0 60.289028-41.288849 109.616414-91.347012 109.616414H196.57503c-50.606244 0-91.347012-49.144692-91.347011-109.616414V182.694023a106.327921 106.327921 0 0 1 101.943265-109.616414H749.407144a105.962533 105.962533 0 0 1 101.760571 109.616414v2.923105a129.712756 129.712756 0 0 0-23.932917-2.923105H274.402684a35.259946 35.259946 0 0 0-33.981088 36.538805A35.259946 35.259946 0 0 0 274.402684 255.771632h552.832114c50.606244 0 91.347012 49.144692 91.347012 109.616414z" fill="#2E85ED" p-id="5103"></path><path d="M681.627662 657.698483a36.538805 36.538805 0 0 0 0-73.077609h-135.741659v-26.307939a101.212489 101.212489 0 0 0 29.413737-18.269402l127.885817-109.616414a38.365745 38.365745 0 0 0 5.298126-51.337021 32.519536 32.519536 0 0 0-47.68314-5.663515l-127.885816 109.616414a31.78876 31.78876 0 0 1-42.019625 0l-127.885817-109.616414a32.519536 32.519536 0 0 0-47.68314 5.663515 38.731133 38.731133 0 0 0 5.298127 51.519715l127.885816 109.616414a98.10669 98.10669 0 0 0 29.413738 18.269402V584.620874h-135.741659a36.538805 36.538805 0 0 0 0 73.077609h135.741659v73.07761h-135.741659a36.538805 36.538805 0 0 0 0 73.077609h135.741659v36.538805a33.981088 33.981088 0 1 0 67.962177 0v-36.538805h135.741659a36.538805 36.538805 0 0 0 0-73.077609h-135.741659v-73.07761z" fill="#2E85ED" p-id="5104"></path></svg>